<svg version="1.2" xmlns="http://www.w3.org/2000/svg" viewBox="0 0 1918 233" width="1918" height="233">
	<title>logo</title>
	<style>
		.s0 { fill: #35530e } 
		.s1 { fill: #497d00 } 
	</style>
	<path id="MEDALERTA" class="s0" aria-label="MEDALERTA"  d="m0 0.3v232.7h61.8v-135.5h1.8l51.9 133.7h37.2l51.8-132.7h1.9v134.5h61.8v-232.7h-78.7l-54 131.8h-2.8l-54.1-131.8zm298.2 232.7h167.3v-50.9h-104.1v-40h95.9v-50.9h-95.9v-40h104.5v-50.9h-167.7zm288.7 0c70.9 0 115.9-43.7 115.9-116.4 0-72.7-45-116.4-116.9-116.4h-88.6v232.8zm-26.4-53.7v-125.4h22.3c36.4 0 56.4 14.1 56.4 62.7 0 48.6-20 62.7-54.6 62.7z"/>
	<path id="MEDALERTA" class="s1" aria-label="MEDALERTA"  d="m762 233l21.4-61.6h90.9l21.3 61.6h37.2l-83.7-232.7h-40.6l-83.7 232.7zm31.6-91.1l34.3-99.4h1.8l34.3 99.4zm172.7 91.1h140.6v-30.2h-105.4v-202.5h-35.2zm180.6 0h147.3v-30.3h-112.2v-71.2h103.2v-30.1h-103.2v-70.9h110.8v-30.3h-145.9zm193 0h35.1v-88h47.7c0.8 0 1.5 0 2.3 0l47.3 88h40l-51.6-94.2c28.5-10.5 42.7-34.3 42.7-65.5 0-42.9-26.6-73-80.6-73h-82.9zm35.1-118.3v-84.3h44.1c34.6 0 49 16.5 49 42.8 0 26.3-14.4 41.5-48.6 41.5zm159.8-84.2h72.5v202.5h35v-202.5h72.6v-30.2h-180.1zm211.7 202.5l21.4-61.6h90.9l21.2 61.6h37.3l-83.7-232.7h-40.6l-83.8 232.7zm31.6-91.1l34.3-99.4h1.9l34.3 99.4z"/>
</svg>